<?xml version="1.0" standalone="no"?>
<!DOCTYPE svg PUBLIC "-//W3C//DTD SVG 20010904//EN"
 "http://www.w3.org/TR/2001/REC-SVG-20010904/DTD/svg10.dtd">
<svg version="1.0" xmlns="http://www.w3.org/2000/svg"
 width="96.000000pt" height="96.000000pt" viewBox="0 0 96.000000 96.000000"
 preserveAspectRatio="xMidYMid meet">
<metadata>
Created by potrace 1.14, written by Peter Selinger 2001-2017
</metadata>
<g transform="translate(0.000000,96.000000) scale(0.100000,-0.100000)"
fill="#000000" stroke="none">
<path d="M307 915 c-9 -8 -18 -28 -22 -45 -6 -26 -11 -30 -40 -30 -39 0 -47
-9 -69 -77 -19 -58 -15 -89 14 -98 23 -7 22 -5 55 -349 13 -144 29 -264 36
-272 17 -20 381 -20 398 0 7 8 23 128 36 272 33 344 32 342 55 349 29 9 33 40
14 98 -22 68 -30 77 -69 77 -29 0 -34 4 -40 30 -13 57 -21 60 -195 60 -127 0
-162 -3 -173 -15z m333 -34 c21 -40 15 -41 -160 -41 -175 0 -181 1 -160 41 10
17 23 19 160 19 137 0 150 -2 160 -19z m114 -122 c9 -28 13 -55 10 -60 -7 -11
-574 -12 -574 -1 0 5 7 32 15 60 l16 52 259 0 259 0 15 -51z m-34 -109 c0 -6
-7 -13 -15 -16 -17 -7 -21 -64 -4 -64 10 0 7 -55 -7 -147 -5 -31 -7 -33 -49
-33 -40 0 -44 2 -50 29 -3 15 -20 41 -36 57 -43 42 -115 42 -158 0 -16 -16
-33 -42 -36 -57 -6 -27 -10 -29 -50 -29 -42 0 -44 2 -49 33 -14 92 -17 147 -7
147 17 0 13 57 -4 64 -8 3 -15 10 -15 16 0 6 82 10 240 10 158 0 240 -4 240
-10z m-179 -199 c20 -20 29 -39 29 -61 0 -43 -47 -90 -90 -90 -43 0 -90 47
-90 90 0 22 9 41 29 61 20 20 39 29 61 29 22 0 41 -9 61 -29z"/>
<path d="M314 616 c-8 -22 3 -49 19 -43 6 2 12 14 12 27 0 27 -22 39 -31 16z"/>
<path d="M390 600 c0 -20 5 -30 15 -30 10 0 15 10 15 30 0 20 -5 30 -15 30
-10 0 -15 -10 -15 -30z"/>
<path d="M464 616 c-8 -22 3 -49 19 -43 6 2 12 14 12 27 0 27 -22 39 -31 16z"/>
<path d="M540 600 c0 -20 5 -30 15 -30 10 0 15 10 15 30 0 20 -5 30 -15 30
-10 0 -15 -10 -15 -30z"/>
<path d="M614 616 c-8 -22 3 -49 19 -43 6 2 12 14 12 27 0 27 -22 39 -31 16z"/>
</g>
</svg>
